# xmcd
# Track frame offsets:
# 150
# 24868
# 51573
# 85245
# 106980
# 123296
# 144779
# 161742
# 178897
# 203699
# 226824
# 243426
# 266429
# 287985
# 313154
#
# Disc length: 4562 seconds
# Revision: 8
# Processed by: cddbd v1.5.2PL0 Copyright (c) Steve Scherf et al.
# Submitted via: VisiTrax 2.11.3.279 - For more info visit www.synapsa.com
#
DISCID=ce11d00f
DTITLE=Various Artist - Paris Lounge  - Paris by Night 12.00 AM [CD2)
DYEAR=2001
DGENRE=Lounge
TTITLE0=Next Evidence - Sands Of Time
TTITLE1=AINOCEROSE - Last Pictures (B. Jones)
TTITLE2=SAVANNAH - Ida Y Vuelta
TTITLE3=HELENA - M'en Aller (Montmartre Remix)
TTITLE4=SOHA - Gardens
TTITLE5=SHALARK - El Son
TTITLE6=OXYMORE - Hydrocution
TTITLE7=KIKO - Italomatic
TTITLE8=I:CUBE - Metamorphic
TTITLE9=ALEXKID - Night Lines
TTITLE10=CHARLES SCHILLINGS and POMPON F - Police Funk
TTITLE11=ART KOLIK - Mingpark (Steph's Deep Park Mix)
TTITLE12=DOCTOROLIVE - The Rythm Of Life (Q-Burns Abstract Message Remix)
TTITLE13=DJ ROUSSIA and LES MALONES - Bad Weather (Inner City Mix)
TTITLE14=TEMPLE OF SOUND feat J.J. BURNEL and NATACHA ATLAS - Dojo Hun (Jamais Lo
TTITLE14=isser Tomber)
EXTD=YEAR: 2001
EXTT0=
EXTT1=
EXTT2=
EXTT3=
EXTT4=
EXTT5=
EXTT6=
EXTT7=
EXTT8=
EXTT9=
EXTT10=
EXTT11=
EXTT12=
EXTT13=
EXTT14=
PLAYORDER=
